<mxfile host="app.diagrams.net" agent="Mozilla/5.0 (Windows NT 10.0; Win64; x64) AppleWebKit/537.36 (KHTML, like Gecko) Chrome/131.0.0.0 Safari/537.36" version="26.0.6">
  <diagram name="Halaman-1" id="JhaCst0QiDc4A3AH-AMC">
    <mxGraphModel dx="2550" dy="778" grid="1" gridSize="10" guides="1" tooltips="1" connect="1" arrows="1" fold="1" page="1" pageScale="1" pageWidth="827" pageHeight="1169" math="0" shadow="0">
      <root>
        <mxCell id="0" />
        <mxCell id="1" parent="0" />
        <mxCell id="VCVp0Tub7TexWnTJi4cX-8" value="Start" style="ellipse;whiteSpace=wrap;html=1;" parent="1" vertex="1">
          <mxGeometry x="365.5" y="70" width="97" height="50" as="geometry" />
        </mxCell>
        <mxCell id="VCVp0Tub7TexWnTJi4cX-9" value="" style="endArrow=classic;html=1;rounded=0;entryX=0.5;entryY=0;entryDx=0;entryDy=0;exitX=0.5;exitY=1;exitDx=0;exitDy=0;" parent="1" target="F3zUeGoIVHuS73jUhbLI-7" edge="1" source="VCVp0Tub7TexWnTJi4cX-8">
          <mxGeometry width="50" height="50" relative="1" as="geometry">
            <mxPoint x="412.6" y="120" as="sourcePoint" />
            <mxPoint x="412.8285714285714" y="160" as="targetPoint" />
            <Array as="points" />
          </mxGeometry>
        </mxCell>
        <mxCell id="F3zUeGoIVHuS73jUhbLI-9" value="" style="edgeStyle=orthogonalEdgeStyle;rounded=0;orthogonalLoop=1;jettySize=auto;html=1;" edge="1" parent="1" source="F3zUeGoIVHuS73jUhbLI-7" target="F3zUeGoIVHuS73jUhbLI-8">
          <mxGeometry relative="1" as="geometry" />
        </mxCell>
        <mxCell id="F3zUeGoIVHuS73jUhbLI-7" value="CRUD List" style="shape=process;whiteSpace=wrap;html=1;backgroundOutline=1;" vertex="1" parent="1">
          <mxGeometry x="354" y="180" width="120" height="60" as="geometry" />
        </mxCell>
        <mxCell id="F3zUeGoIVHuS73jUhbLI-24" value="" style="edgeStyle=orthogonalEdgeStyle;rounded=0;orthogonalLoop=1;jettySize=auto;html=1;" edge="1" parent="1" source="F3zUeGoIVHuS73jUhbLI-8" target="F3zUeGoIVHuS73jUhbLI-23">
          <mxGeometry relative="1" as="geometry" />
        </mxCell>
        <mxCell id="F3zUeGoIVHuS73jUhbLI-8" value="Create List" style="rounded=1;whiteSpace=wrap;html=1;" vertex="1" parent="1">
          <mxGeometry x="354" y="300" width="120" height="60" as="geometry" />
        </mxCell>
        <mxCell id="F3zUeGoIVHuS73jUhbLI-15" value="" style="edgeStyle=orthogonalEdgeStyle;rounded=0;orthogonalLoop=1;jettySize=auto;html=1;" edge="1" parent="1" source="F3zUeGoIVHuS73jUhbLI-10" target="F3zUeGoIVHuS73jUhbLI-14">
          <mxGeometry relative="1" as="geometry" />
        </mxCell>
        <mxCell id="F3zUeGoIVHuS73jUhbLI-10" value="Create List" style="rounded=1;whiteSpace=wrap;html=1;" vertex="1" parent="1">
          <mxGeometry x="80" y="300" width="120" height="60" as="geometry" />
        </mxCell>
        <mxCell id="F3zUeGoIVHuS73jUhbLI-20" value="" style="edgeStyle=orthogonalEdgeStyle;rounded=0;orthogonalLoop=1;jettySize=auto;html=1;" edge="1" parent="1" source="F3zUeGoIVHuS73jUhbLI-11" target="F3zUeGoIVHuS73jUhbLI-19">
          <mxGeometry relative="1" as="geometry" />
        </mxCell>
        <mxCell id="F3zUeGoIVHuS73jUhbLI-11" value="Create List" style="rounded=1;whiteSpace=wrap;html=1;" vertex="1" parent="1">
          <mxGeometry x="630" y="300" width="120" height="60" as="geometry" />
        </mxCell>
        <mxCell id="F3zUeGoIVHuS73jUhbLI-12" value="" style="endArrow=classic;html=1;rounded=0;exitX=0;exitY=0.5;exitDx=0;exitDy=0;entryX=0.5;entryY=0;entryDx=0;entryDy=0;" edge="1" parent="1" source="F3zUeGoIVHuS73jUhbLI-7" target="F3zUeGoIVHuS73jUhbLI-10">
          <mxGeometry width="50" height="50" relative="1" as="geometry">
            <mxPoint x="390" y="420" as="sourcePoint" />
            <mxPoint x="440" y="370" as="targetPoint" />
            <Array as="points">
              <mxPoint x="140" y="210" />
            </Array>
          </mxGeometry>
        </mxCell>
        <mxCell id="F3zUeGoIVHuS73jUhbLI-13" value="" style="endArrow=classic;html=1;rounded=0;exitX=1;exitY=0.5;exitDx=0;exitDy=0;entryX=0.5;entryY=0;entryDx=0;entryDy=0;" edge="1" parent="1" source="F3zUeGoIVHuS73jUhbLI-7" target="F3zUeGoIVHuS73jUhbLI-11">
          <mxGeometry width="50" height="50" relative="1" as="geometry">
            <mxPoint x="400" y="410" as="sourcePoint" />
            <mxPoint x="450" y="360" as="targetPoint" />
            <Array as="points">
              <mxPoint x="690" y="210" />
            </Array>
          </mxGeometry>
        </mxCell>
        <mxCell id="F3zUeGoIVHuS73jUhbLI-50" value="" style="edgeStyle=orthogonalEdgeStyle;rounded=0;orthogonalLoop=1;jettySize=auto;html=1;entryX=0;entryY=0.5;entryDx=0;entryDy=0;" edge="1" parent="1" source="F3zUeGoIVHuS73jUhbLI-14" target="F3zUeGoIVHuS73jUhbLI-51">
          <mxGeometry relative="1" as="geometry">
            <mxPoint x="180" y="790" as="targetPoint" />
            <Array as="points">
              <mxPoint x="260" y="470" />
              <mxPoint x="260" y="790" />
            </Array>
          </mxGeometry>
        </mxCell>
        <mxCell id="F3zUeGoIVHuS73jUhbLI-14" value="Save" style="rhombus;whiteSpace=wrap;html=1;rounded=1;" vertex="1" parent="1">
          <mxGeometry x="100" y="430" width="80" height="80" as="geometry" />
        </mxCell>
        <mxCell id="F3zUeGoIVHuS73jUhbLI-19" value="Save" style="rhombus;whiteSpace=wrap;html=1;rounded=1;" vertex="1" parent="1">
          <mxGeometry x="650" y="430" width="80" height="80" as="geometry" />
        </mxCell>
        <mxCell id="F3zUeGoIVHuS73jUhbLI-23" value="Save" style="rhombus;whiteSpace=wrap;html=1;rounded=1;" vertex="1" parent="1">
          <mxGeometry x="374" y="430" width="80" height="80" as="geometry" />
        </mxCell>
        <mxCell id="F3zUeGoIVHuS73jUhbLI-29" value="Database" style="shape=parallelogram;perimeter=parallelogramPerimeter;whiteSpace=wrap;html=1;fixedSize=1;" vertex="1" parent="1">
          <mxGeometry x="354" y="600" width="120" height="60" as="geometry" />
        </mxCell>
        <mxCell id="F3zUeGoIVHuS73jUhbLI-31" value="" style="endArrow=none;dashed=1;html=1;rounded=0;startArrow=classicThin;startFill=1;entryX=0;entryY=0.5;entryDx=0;entryDy=0;exitX=0;exitY=0.5;exitDx=0;exitDy=0;" edge="1" parent="1" source="F3zUeGoIVHuS73jUhbLI-10">
          <mxGeometry width="50" height="50" relative="1" as="geometry">
            <mxPoint x="80" y="210" as="sourcePoint" />
            <mxPoint x="110" y="470" as="targetPoint" />
            <Array as="points">
              <mxPoint x="-30" y="330" />
              <mxPoint x="-30" y="470" />
            </Array>
          </mxGeometry>
        </mxCell>
        <mxCell id="F3zUeGoIVHuS73jUhbLI-34" value="No" style="edgeLabel;html=1;align=center;verticalAlign=middle;resizable=0;points=[];" vertex="1" connectable="0" parent="F3zUeGoIVHuS73jUhbLI-31">
          <mxGeometry x="-0.0814" relative="1" as="geometry">
            <mxPoint as="offset" />
          </mxGeometry>
        </mxCell>
        <mxCell id="F3zUeGoIVHuS73jUhbLI-32" value="" style="endArrow=none;dashed=1;html=1;rounded=0;startArrow=classicThin;startFill=1;entryX=1;entryY=0.5;entryDx=0;entryDy=0;exitX=1;exitY=0.5;exitDx=0;exitDy=0;" edge="1" parent="1" source="F3zUeGoIVHuS73jUhbLI-8" target="F3zUeGoIVHuS73jUhbLI-23">
          <mxGeometry width="50" height="50" relative="1" as="geometry">
            <mxPoint x="610" y="410" as="sourcePoint" />
            <mxPoint x="640" y="550" as="targetPoint" />
            <Array as="points">
              <mxPoint x="530" y="330" />
              <mxPoint x="530" y="470" />
            </Array>
          </mxGeometry>
        </mxCell>
        <mxCell id="F3zUeGoIVHuS73jUhbLI-35" value="No" style="edgeLabel;html=1;align=center;verticalAlign=middle;resizable=0;points=[];" vertex="1" connectable="0" parent="F3zUeGoIVHuS73jUhbLI-32">
          <mxGeometry x="-0.08" y="-1" relative="1" as="geometry">
            <mxPoint as="offset" />
          </mxGeometry>
        </mxCell>
        <mxCell id="F3zUeGoIVHuS73jUhbLI-33" value="" style="endArrow=none;dashed=1;html=1;rounded=0;startArrow=classicThin;startFill=1;entryX=1;entryY=0.5;entryDx=0;entryDy=0;exitX=1;exitY=0.5;exitDx=0;exitDy=0;" edge="1" parent="1">
          <mxGeometry width="50" height="50" relative="1" as="geometry">
            <mxPoint x="750" y="330" as="sourcePoint" />
            <mxPoint x="730" y="470" as="targetPoint" />
            <Array as="points">
              <mxPoint x="806" y="330" />
              <mxPoint x="806" y="470" />
            </Array>
          </mxGeometry>
        </mxCell>
        <mxCell id="F3zUeGoIVHuS73jUhbLI-36" value="No" style="edgeLabel;html=1;align=center;verticalAlign=middle;resizable=0;points=[];" vertex="1" connectable="0" parent="F3zUeGoIVHuS73jUhbLI-33">
          <mxGeometry x="-0.08" relative="1" as="geometry">
            <mxPoint as="offset" />
          </mxGeometry>
        </mxCell>
        <mxCell id="F3zUeGoIVHuS73jUhbLI-37" value="" style="endArrow=none;dashed=1;html=1;rounded=0;startArrow=classicThin;startFill=1;entryX=0.5;entryY=1;entryDx=0;entryDy=0;exitX=0;exitY=0.5;exitDx=0;exitDy=0;" edge="1" parent="1" source="F3zUeGoIVHuS73jUhbLI-29" target="F3zUeGoIVHuS73jUhbLI-14">
          <mxGeometry width="50" height="50" relative="1" as="geometry">
            <mxPoint x="220" y="550" as="sourcePoint" />
            <mxPoint x="250" y="690" as="targetPoint" />
            <Array as="points">
              <mxPoint x="140" y="630" />
            </Array>
          </mxGeometry>
        </mxCell>
        <mxCell id="F3zUeGoIVHuS73jUhbLI-39" value="Yes" style="edgeLabel;html=1;align=center;verticalAlign=middle;resizable=0;points=[];" vertex="1" connectable="0" parent="F3zUeGoIVHuS73jUhbLI-37">
          <mxGeometry x="0.7271" relative="1" as="geometry">
            <mxPoint y="1" as="offset" />
          </mxGeometry>
        </mxCell>
        <mxCell id="F3zUeGoIVHuS73jUhbLI-42" value="" style="endArrow=none;dashed=1;html=1;rounded=0;startArrow=classicThin;startFill=1;entryX=0.5;entryY=1;entryDx=0;entryDy=0;exitX=0.5;exitY=0;exitDx=0;exitDy=0;" edge="1" parent="1" source="F3zUeGoIVHuS73jUhbLI-29" target="F3zUeGoIVHuS73jUhbLI-23">
          <mxGeometry width="50" height="50" relative="1" as="geometry">
            <mxPoint x="474" y="570" as="sourcePoint" />
            <mxPoint x="454" y="710" as="targetPoint" />
            <Array as="points" />
          </mxGeometry>
        </mxCell>
        <mxCell id="F3zUeGoIVHuS73jUhbLI-48" value="Yes" style="edgeLabel;html=1;align=center;verticalAlign=middle;resizable=0;points=[];" vertex="1" connectable="0" parent="F3zUeGoIVHuS73jUhbLI-42">
          <mxGeometry x="-0.0954" y="1" relative="1" as="geometry">
            <mxPoint as="offset" />
          </mxGeometry>
        </mxCell>
        <mxCell id="F3zUeGoIVHuS73jUhbLI-45" value="" style="endArrow=none;dashed=1;html=1;rounded=0;startArrow=classicThin;startFill=1;entryX=0.5;entryY=1;entryDx=0;entryDy=0;exitX=1;exitY=0.5;exitDx=0;exitDy=0;" edge="1" parent="1" source="F3zUeGoIVHuS73jUhbLI-29" target="F3zUeGoIVHuS73jUhbLI-19">
          <mxGeometry width="50" height="50" relative="1" as="geometry">
            <mxPoint x="630" y="560" as="sourcePoint" />
            <mxPoint x="610" y="700" as="targetPoint" />
            <Array as="points">
              <mxPoint x="690" y="630" />
            </Array>
          </mxGeometry>
        </mxCell>
        <mxCell id="F3zUeGoIVHuS73jUhbLI-47" value="Yes" style="edgeLabel;html=1;align=center;verticalAlign=middle;resizable=0;points=[];" vertex="1" connectable="0" parent="F3zUeGoIVHuS73jUhbLI-45">
          <mxGeometry x="0.7083" y="2" relative="1" as="geometry">
            <mxPoint as="offset" />
          </mxGeometry>
        </mxCell>
        <mxCell id="F3zUeGoIVHuS73jUhbLI-55" value="" style="edgeStyle=orthogonalEdgeStyle;rounded=0;orthogonalLoop=1;jettySize=auto;html=1;" edge="1" parent="1" source="F3zUeGoIVHuS73jUhbLI-51" target="F3zUeGoIVHuS73jUhbLI-54">
          <mxGeometry relative="1" as="geometry" />
        </mxCell>
        <mxCell id="F3zUeGoIVHuS73jUhbLI-51" value="CRUD Task" style="shape=process;whiteSpace=wrap;html=1;backgroundOutline=1;" vertex="1" parent="1">
          <mxGeometry x="354" y="760" width="120" height="60" as="geometry" />
        </mxCell>
        <mxCell id="F3zUeGoIVHuS73jUhbLI-52" value="" style="endArrow=classic;html=1;rounded=0;exitX=0;exitY=0.5;exitDx=0;exitDy=0;entryX=0.5;entryY=0;entryDx=0;entryDy=0;" edge="1" parent="1" source="F3zUeGoIVHuS73jUhbLI-23" target="F3zUeGoIVHuS73jUhbLI-51">
          <mxGeometry width="50" height="50" relative="1" as="geometry">
            <mxPoint x="330" y="720" as="sourcePoint" />
            <mxPoint x="380" y="670" as="targetPoint" />
            <Array as="points">
              <mxPoint x="290" y="470" />
              <mxPoint x="290" y="720" />
              <mxPoint x="413" y="720" />
            </Array>
          </mxGeometry>
        </mxCell>
        <mxCell id="F3zUeGoIVHuS73jUhbLI-53" value="" style="endArrow=classic;html=1;rounded=0;exitX=0;exitY=0.5;exitDx=0;exitDy=0;entryX=1;entryY=0.5;entryDx=0;entryDy=0;" edge="1" parent="1" source="F3zUeGoIVHuS73jUhbLI-19" target="F3zUeGoIVHuS73jUhbLI-51">
          <mxGeometry width="50" height="50" relative="1" as="geometry">
            <mxPoint x="450" y="720" as="sourcePoint" />
            <mxPoint x="500" y="670" as="targetPoint" />
            <Array as="points">
              <mxPoint x="560" y="470" />
              <mxPoint x="560" y="790" />
            </Array>
          </mxGeometry>
        </mxCell>
        <mxCell id="F3zUeGoIVHuS73jUhbLI-68" value="" style="edgeStyle=orthogonalEdgeStyle;rounded=0;orthogonalLoop=1;jettySize=auto;html=1;" edge="1" parent="1" source="F3zUeGoIVHuS73jUhbLI-54" target="F3zUeGoIVHuS73jUhbLI-67">
          <mxGeometry relative="1" as="geometry" />
        </mxCell>
        <mxCell id="F3zUeGoIVHuS73jUhbLI-54" value="Create Task" style="rounded=1;whiteSpace=wrap;html=1;" vertex="1" parent="1">
          <mxGeometry x="354" y="990" width="120" height="60" as="geometry" />
        </mxCell>
        <mxCell id="F3zUeGoIVHuS73jUhbLI-62" value="" style="edgeStyle=orthogonalEdgeStyle;rounded=0;orthogonalLoop=1;jettySize=auto;html=1;" edge="1" parent="1" source="F3zUeGoIVHuS73jUhbLI-56" target="F3zUeGoIVHuS73jUhbLI-61">
          <mxGeometry relative="1" as="geometry" />
        </mxCell>
        <mxCell id="F3zUeGoIVHuS73jUhbLI-56" value="Create Task" style="rounded=1;whiteSpace=wrap;html=1;" vertex="1" parent="1">
          <mxGeometry x="100" y="990" width="120" height="60" as="geometry" />
        </mxCell>
        <mxCell id="F3zUeGoIVHuS73jUhbLI-70" value="" style="edgeStyle=orthogonalEdgeStyle;rounded=0;orthogonalLoop=1;jettySize=auto;html=1;" edge="1" parent="1" source="F3zUeGoIVHuS73jUhbLI-57" target="F3zUeGoIVHuS73jUhbLI-69">
          <mxGeometry relative="1" as="geometry" />
        </mxCell>
        <mxCell id="F3zUeGoIVHuS73jUhbLI-57" value="Create Task" style="rounded=1;whiteSpace=wrap;html=1;" vertex="1" parent="1">
          <mxGeometry x="610" y="990" width="120" height="60" as="geometry" />
        </mxCell>
        <mxCell id="F3zUeGoIVHuS73jUhbLI-59" value="" style="endArrow=classic;html=1;rounded=0;exitX=1;exitY=0.75;exitDx=0;exitDy=0;entryX=0.5;entryY=0;entryDx=0;entryDy=0;" edge="1" parent="1" source="F3zUeGoIVHuS73jUhbLI-51" target="F3zUeGoIVHuS73jUhbLI-57">
          <mxGeometry width="50" height="50" relative="1" as="geometry">
            <mxPoint x="460" y="980" as="sourcePoint" />
            <mxPoint x="510" y="930" as="targetPoint" />
            <Array as="points">
              <mxPoint x="670" y="805" />
            </Array>
          </mxGeometry>
        </mxCell>
        <mxCell id="F3zUeGoIVHuS73jUhbLI-60" value="" style="endArrow=classic;html=1;rounded=0;entryX=0.5;entryY=0;entryDx=0;entryDy=0;exitX=0;exitY=0.75;exitDx=0;exitDy=0;" edge="1" parent="1" source="F3zUeGoIVHuS73jUhbLI-51" target="F3zUeGoIVHuS73jUhbLI-56">
          <mxGeometry width="50" height="50" relative="1" as="geometry">
            <mxPoint x="230" y="910" as="sourcePoint" />
            <mxPoint x="350" y="970" as="targetPoint" />
            <Array as="points">
              <mxPoint x="160" y="805" />
            </Array>
          </mxGeometry>
        </mxCell>
        <mxCell id="F3zUeGoIVHuS73jUhbLI-61" value="Save" style="rhombus;whiteSpace=wrap;html=1;rounded=1;" vertex="1" parent="1">
          <mxGeometry x="120" y="1120" width="80" height="80" as="geometry" />
        </mxCell>
        <mxCell id="F3zUeGoIVHuS73jUhbLI-63" value="" style="endArrow=none;dashed=1;html=1;rounded=0;startArrow=classicThin;startFill=1;entryX=0;entryY=0.5;entryDx=0;entryDy=0;exitX=0;exitY=0.5;exitDx=0;exitDy=0;" edge="1" parent="1" source="F3zUeGoIVHuS73jUhbLI-56" target="F3zUeGoIVHuS73jUhbLI-61">
          <mxGeometry width="50" height="50" relative="1" as="geometry">
            <mxPoint y="1200" as="sourcePoint" />
            <mxPoint y="1110" as="targetPoint" />
            <Array as="points">
              <mxPoint y="1020" />
              <mxPoint y="1160" />
            </Array>
          </mxGeometry>
        </mxCell>
        <mxCell id="F3zUeGoIVHuS73jUhbLI-64" value="No" style="edgeLabel;html=1;align=center;verticalAlign=middle;resizable=0;points=[];" vertex="1" connectable="0" parent="F3zUeGoIVHuS73jUhbLI-63">
          <mxGeometry x="-0.0954" y="1" relative="1" as="geometry">
            <mxPoint as="offset" />
          </mxGeometry>
        </mxCell>
        <mxCell id="F3zUeGoIVHuS73jUhbLI-65" value="" style="endArrow=none;dashed=1;html=1;rounded=0;startArrow=classicThin;startFill=1;entryX=1;entryY=0.5;entryDx=0;entryDy=0;exitX=1;exitY=0.5;exitDx=0;exitDy=0;" edge="1" parent="1" source="F3zUeGoIVHuS73jUhbLI-54" target="F3zUeGoIVHuS73jUhbLI-67">
          <mxGeometry width="50" height="50" relative="1" as="geometry">
            <mxPoint x="610" y="1080" as="sourcePoint" />
            <mxPoint x="630" y="1220" as="targetPoint" />
            <Array as="points">
              <mxPoint x="540" y="1020" />
              <mxPoint x="540" y="1160" />
            </Array>
          </mxGeometry>
        </mxCell>
        <mxCell id="F3zUeGoIVHuS73jUhbLI-66" value="No" style="edgeLabel;html=1;align=center;verticalAlign=middle;resizable=0;points=[];" vertex="1" connectable="0" parent="F3zUeGoIVHuS73jUhbLI-65">
          <mxGeometry x="-0.0954" y="1" relative="1" as="geometry">
            <mxPoint as="offset" />
          </mxGeometry>
        </mxCell>
        <mxCell id="F3zUeGoIVHuS73jUhbLI-67" value="Save" style="rhombus;whiteSpace=wrap;html=1;rounded=1;" vertex="1" parent="1">
          <mxGeometry x="374" y="1120" width="80" height="80" as="geometry" />
        </mxCell>
        <mxCell id="F3zUeGoIVHuS73jUhbLI-69" value="Save" style="rhombus;whiteSpace=wrap;html=1;rounded=1;" vertex="1" parent="1">
          <mxGeometry x="630" y="1120" width="80" height="80" as="geometry" />
        </mxCell>
        <mxCell id="F3zUeGoIVHuS73jUhbLI-71" value="" style="endArrow=none;dashed=1;html=1;rounded=0;startArrow=classicThin;startFill=1;entryX=1;entryY=0.5;entryDx=0;entryDy=0;exitX=1;exitY=0.5;exitDx=0;exitDy=0;" edge="1" parent="1">
          <mxGeometry width="50" height="50" relative="1" as="geometry">
            <mxPoint x="730" y="1020" as="sourcePoint" />
            <mxPoint x="710" y="1160" as="targetPoint" />
            <Array as="points">
              <mxPoint x="796" y="1020" />
              <mxPoint x="796" y="1160" />
            </Array>
          </mxGeometry>
        </mxCell>
        <mxCell id="F3zUeGoIVHuS73jUhbLI-72" value="No" style="edgeLabel;html=1;align=center;verticalAlign=middle;resizable=0;points=[];" vertex="1" connectable="0" parent="F3zUeGoIVHuS73jUhbLI-71">
          <mxGeometry x="-0.0954" y="1" relative="1" as="geometry">
            <mxPoint as="offset" />
          </mxGeometry>
        </mxCell>
        <mxCell id="F3zUeGoIVHuS73jUhbLI-75" value="Database" style="shape=parallelogram;perimeter=parallelogramPerimeter;whiteSpace=wrap;html=1;fixedSize=1;" vertex="1" parent="1">
          <mxGeometry x="353" y="1320" width="120" height="60" as="geometry" />
        </mxCell>
        <mxCell id="F3zUeGoIVHuS73jUhbLI-76" value="" style="endArrow=none;dashed=1;html=1;rounded=0;startArrow=classicThin;startFill=1;exitX=0;exitY=0.5;exitDx=0;exitDy=0;entryX=0.5;entryY=1;entryDx=0;entryDy=0;" edge="1" parent="1" source="F3zUeGoIVHuS73jUhbLI-75" target="F3zUeGoIVHuS73jUhbLI-61">
          <mxGeometry width="50" height="50" relative="1" as="geometry">
            <mxPoint x="200" y="1360" as="sourcePoint" />
            <mxPoint x="180" y="1260" as="targetPoint" />
            <Array as="points">
              <mxPoint x="160" y="1350" />
            </Array>
          </mxGeometry>
        </mxCell>
        <mxCell id="F3zUeGoIVHuS73jUhbLI-78" value="Yes" style="edgeLabel;html=1;align=center;verticalAlign=middle;resizable=0;points=[];" vertex="1" connectable="0" parent="F3zUeGoIVHuS73jUhbLI-76">
          <mxGeometry x="0.5482" relative="1" as="geometry">
            <mxPoint as="offset" />
          </mxGeometry>
        </mxCell>
        <mxCell id="F3zUeGoIVHuS73jUhbLI-79" value="" style="endArrow=none;dashed=1;html=1;rounded=0;startArrow=classicThin;startFill=1;exitX=0.5;exitY=0;exitDx=0;exitDy=0;entryX=0.5;entryY=1;entryDx=0;entryDy=0;" edge="1" parent="1" source="F3zUeGoIVHuS73jUhbLI-75" target="F3zUeGoIVHuS73jUhbLI-67">
          <mxGeometry width="50" height="50" relative="1" as="geometry">
            <mxPoint x="515.5" y="1280" as="sourcePoint" />
            <mxPoint x="312.5" y="1130" as="targetPoint" />
            <Array as="points">
              <mxPoint x="414" y="1280" />
            </Array>
          </mxGeometry>
        </mxCell>
        <mxCell id="F3zUeGoIVHuS73jUhbLI-80" value="Yes" style="edgeLabel;html=1;align=center;verticalAlign=middle;resizable=0;points=[];" vertex="1" connectable="0" parent="F3zUeGoIVHuS73jUhbLI-79">
          <mxGeometry x="0.5482" relative="1" as="geometry">
            <mxPoint x="-1" y="52" as="offset" />
          </mxGeometry>
        </mxCell>
        <mxCell id="F3zUeGoIVHuS73jUhbLI-81" value="" style="endArrow=none;dashed=1;html=1;rounded=0;startArrow=classicThin;startFill=1;exitX=1;exitY=0.5;exitDx=0;exitDy=0;entryX=0.5;entryY=1;entryDx=0;entryDy=0;" edge="1" parent="1" source="F3zUeGoIVHuS73jUhbLI-75" target="F3zUeGoIVHuS73jUhbLI-69">
          <mxGeometry width="50" height="50" relative="1" as="geometry">
            <mxPoint x="630" y="1350" as="sourcePoint" />
            <mxPoint x="631" y="1230" as="targetPoint" />
            <Array as="points">
              <mxPoint x="670" y="1350" />
            </Array>
          </mxGeometry>
        </mxCell>
        <mxCell id="F3zUeGoIVHuS73jUhbLI-82" value="Yes" style="edgeLabel;html=1;align=center;verticalAlign=middle;resizable=0;points=[];" vertex="1" connectable="0" parent="F3zUeGoIVHuS73jUhbLI-81">
          <mxGeometry x="0.5482" relative="1" as="geometry">
            <mxPoint y="-1" as="offset" />
          </mxGeometry>
        </mxCell>
        <mxCell id="F3zUeGoIVHuS73jUhbLI-83" value="End" style="ellipse;whiteSpace=wrap;html=1;" vertex="1" parent="1">
          <mxGeometry x="354" y="1460" width="120" height="80" as="geometry" />
        </mxCell>
        <mxCell id="F3zUeGoIVHuS73jUhbLI-84" value="" style="endArrow=classic;html=1;rounded=0;exitX=1;exitY=0.5;exitDx=0;exitDy=0;entryX=0;entryY=0.5;entryDx=0;entryDy=0;" edge="1" parent="1" source="F3zUeGoIVHuS73jUhbLI-61" target="F3zUeGoIVHuS73jUhbLI-83">
          <mxGeometry width="50" height="50" relative="1" as="geometry">
            <mxPoint x="260" y="1300" as="sourcePoint" />
            <mxPoint x="310" y="1250" as="targetPoint" />
            <Array as="points">
              <mxPoint x="270" y="1160" />
              <mxPoint x="270" y="1340" />
              <mxPoint x="270" y="1500" />
            </Array>
          </mxGeometry>
        </mxCell>
        <mxCell id="F3zUeGoIVHuS73jUhbLI-85" value="" style="endArrow=classic;html=1;rounded=0;entryX=0.5;entryY=0;entryDx=0;entryDy=0;exitX=0;exitY=0.5;exitDx=0;exitDy=0;" edge="1" parent="1" source="F3zUeGoIVHuS73jUhbLI-67" target="F3zUeGoIVHuS73jUhbLI-83">
          <mxGeometry width="50" height="50" relative="1" as="geometry">
            <mxPoint x="340" y="1450" as="sourcePoint" />
            <mxPoint x="390" y="1400" as="targetPoint" />
            <Array as="points">
              <mxPoint x="310" y="1160" />
              <mxPoint x="310" y="1410" />
              <mxPoint x="414" y="1410" />
            </Array>
          </mxGeometry>
        </mxCell>
        <mxCell id="F3zUeGoIVHuS73jUhbLI-86" value="" style="endArrow=classic;html=1;rounded=0;exitX=0;exitY=0.5;exitDx=0;exitDy=0;entryX=1;entryY=0.5;entryDx=0;entryDy=0;" edge="1" parent="1" source="F3zUeGoIVHuS73jUhbLI-69" target="F3zUeGoIVHuS73jUhbLI-83">
          <mxGeometry width="50" height="50" relative="1" as="geometry">
            <mxPoint x="530" y="1160" as="sourcePoint" />
            <mxPoint x="684" y="1500" as="targetPoint" />
            <Array as="points">
              <mxPoint x="570" y="1160" />
              <mxPoint x="570" y="1350" />
              <mxPoint x="570" y="1500" />
            </Array>
          </mxGeometry>
        </mxCell>
      </root>
    </mxGraphModel>
  </diagram>
</mxfile>
